# Blender 3.3.1
# www.blender.org
mtllib tree_trunk.mtl
o NatureFreePack1
v -0.895741 -0.025227 0.141406
v -0.759723 1.624838 0.099980
v -0.912788 -0.010404 -0.477723
v -0.670637 1.624838 -0.308876
v -0.316404 -0.005882 -0.632423
v -0.318540 1.624838 -0.534987
v 0.238824 -0.060276 -0.537386
v 0.090316 1.624838 -0.445901
v 0.562514 -0.102540 -0.130770
v 0.316426 1.624838 -0.093804
v 0.396441 -0.063186 0.359905
v 0.227341 1.624838 0.315051
v -0.128009 -0.038056 0.656966
v -0.124757 1.624838 0.541162
v -0.655121 -0.045858 0.570627
v -0.533611 1.624838 0.452077
v -0.511327 9.260448 -0.198183
v -0.568803 9.260450 0.065601
v -0.284162 9.260450 -0.344066
v -0.020377 9.260450 -0.286589
v 0.125504 9.260450 -0.059423
v 0.068028 9.260450 0.204361
v -0.159138 9.260450 0.350243
v -0.422921 9.260448 0.292767
vn -0.9909 0.1167 -0.0678
vn -0.3710 0.1025 -0.9229
vn 0.1907 0.0645 -0.9795
vn 0.8074 0.1151 -0.5787
vn 0.9568 0.1169 0.2663
vn 0.5128 0.0664 0.8559
vn 0.9768 0.0235 0.2128
vn -0.1843 0.0758 0.9799
vn -0.8539 0.0909 0.5125
vn -0.0417 -0.9990 -0.0149
vn -0.0000 1.0000 -0.0000
vn -0.8412 0.0235 0.5402
vn -0.9768 0.0235 -0.2128
vn 0.2128 0.0235 -0.9768
vn 0.5402 0.0235 0.8412
vn 0.8412 0.0235 -0.5402
vn -0.2128 0.0235 0.9768
vn -0.5402 0.0235 -0.8412
vt 0.886878 0.038153
vt 0.685059 0.922019
vt 0.279719 0.775619
vt 0.886878 0.000000
vt 0.685059 0.886160
vt 0.507814 0.000000
vt 0.066737 0.480032
vt 0.877940 0.038153
vt 0.000000 0.895895
vt 0.260576 0.777099
vt 0.877940 0.000000
vt 0.037940 0.895895
vt 0.066737 0.495668
vt 0.452272 0.298944
vt 0.000000 0.887006
vt 0.886640 0.101891
vt 0.252740 0.769987
vt 0.037940 0.887006
vt 0.886640 0.064757
vt 0.485527 0.186683
vt 0.467908 0.298944
vt 0.877940 0.101891
vt 0.445621 0.895665
vt 0.252883 0.762846
vt 0.877940 0.064757
vt 0.482533 0.895665
vt 0.501163 0.186683
vt 0.485527 0.093342
vt 0.445621 0.887017
vt 0.886586 0.165400
vt 0.263875 0.757963
vt 0.482533 0.887017
vt 0.886586 0.128495
vt 0.452272 0.392286
vt 0.501163 0.093342
vt 0.877940 0.165400
vt 0.618548 0.895070
vt 0.279946 0.759056
vt 0.877940 0.128495
vt 0.656652 0.895070
vt 0.467908 0.392286
vt 0.166503 0.497372
vt 0.618548 0.886143
vt 0.512131 0.895621
vt 0.291830 0.764998
vt 0.656652 0.886143
vt 0.548854 0.895621
vt 0.166503 0.513008
vt 0.306175 0.496694
vt 0.512131 0.887017
vt 0.693460 0.922019
vt 0.291830 0.771736
vt 0.548854 0.887017
vt 0.693460 0.886160
vt 0.492178 0.000000
vt 0.306175 0.512330
vt 0.877940 0.201186
vt 0.000000 0.495668
vt 0.452272 0.365681
vt 0.877940 0.195808
vt 0.507814 0.066737
vt 0.000000 0.480032
vt 0.881743 0.204990
vt 0.485527 0.253421
vt 0.467908 0.365681
vt 0.887122 0.204990
vt 0.501163 0.253421
vt 0.485527 0.160079
vt 0.452272 0.459023
vt 0.890925 0.201186
vt 0.501163 0.160079
vt 0.467908 0.459023
vt 0.890925 0.195808
vt 0.099766 0.497372
vt 0.887122 0.192004
vt 0.099766 0.513008
vt 0.239438 0.496694
vt 0.881743 0.192004
vt 0.492178 0.066737
vt 0.239438 0.512330
s 0
usemtl Tree2SG
f 1/1/1 2/4/1 4/11/1 3/8/1
f 3/9/2 4/12/2 6/18/2 5/15/2
f 5/16/3 6/19/3 8/25/3 7/22/3
f 7/23/4 8/26/4 10/32/4 9/29/4
f 9/30/5 10/33/5 12/39/5 11/36/5
f 11/37/6 12/40/6 14/46/6 13/43/6
f 12/41/7 10/34/7 21/69/7 22/72/7
f 13/44/8 14/47/8 16/53/8 15/50/8
f 15/51/9 16/54/9 2/5/9 1/2/9
f 1/3/10 3/10/10 5/17/10 7/24/10 9/31/10 11/38/10 13/45/10 15/52/10
f 17/57/11 18/60/11 24/78/11 23/75/11 22/73/11 21/70/11 20/66/11 19/63/11
f 2/6/12 16/55/12 24/79/12 18/61/12
f 4/13/13 2/7/13 18/62/13 17/58/13
f 8/27/14 6/20/14 19/64/14 20/67/14
f 14/48/15 12/42/15 22/74/15 23/76/15
f 10/35/16 8/28/16 20/68/16 21/71/16
f 16/56/17 14/49/17 23/77/17 24/80/17
f 6/21/18 4/14/18 17/59/18 19/65/18
